<svg id="visual" viewBox="0 0 900 600" width="900" height="600" xmlns="http://www.w3.org/2000/svg" xmlns:xlink="http://www.w3.org/1999/xlink" version="1.1"><rect x="0" y="0" width="900" height="600" fill="#202020"></rect><defs><linearGradient id="grad1_0" x1="33.3%" y1="100%" x2="100%" y2="0%"><stop offset="20%" stop-color="#a7233a" stop-opacity="1"></stop><stop offset="80%" stop-color="#a7233a" stop-opacity="1"></stop></linearGradient></defs><defs><linearGradient id="grad1_1" x1="33.3%" y1="100%" x2="100%" y2="0%"><stop offset="20%" stop-color="#a7233a" stop-opacity="1"></stop><stop offset="80%" stop-color="#8b2735" stop-opacity="1"></stop></linearGradient></defs><defs><linearGradient id="grad1_2" x1="33.3%" y1="100%" x2="100%" y2="0%"><stop offset="20%" stop-color="#70292f" stop-opacity="1"></stop><stop offset="80%" stop-color="#8b2735" stop-opacity="1"></stop></linearGradient></defs><defs><linearGradient id="grad1_3" x1="33.3%" y1="100%" x2="100%" y2="0%"><stop offset="20%" stop-color="#70292f" stop-opacity="1"></stop><stop offset="80%" stop-color="#55282a" stop-opacity="1"></stop></linearGradient></defs><defs><linearGradient id="grad1_4" x1="33.3%" y1="100%" x2="100%" y2="0%"><stop offset="20%" stop-color="#3b2525" stop-opacity="1"></stop><stop offset="80%" stop-color="#55282a" stop-opacity="1"></stop></linearGradient></defs><defs><linearGradient id="grad1_5" x1="33.3%" y1="100%" x2="100%" y2="0%"><stop offset="20%" stop-color="#3b2525" stop-opacity="1"></stop><stop offset="80%" stop-color="#202020" stop-opacity="1"></stop></linearGradient></defs><defs><linearGradient id="grad2_0" x1="0%" y1="100%" x2="66.7%" y2="0%"><stop offset="20%" stop-color="#a7233a" stop-opacity="1"></stop><stop offset="80%" stop-color="#a7233a" stop-opacity="1"></stop></linearGradient></defs><defs><linearGradient id="grad2_1" x1="0%" y1="100%" x2="66.7%" y2="0%"><stop offset="20%" stop-color="#8b2735" stop-opacity="1"></stop><stop offset="80%" stop-color="#a7233a" stop-opacity="1"></stop></linearGradient></defs><defs><linearGradient id="grad2_2" x1="0%" y1="100%" x2="66.7%" y2="0%"><stop offset="20%" stop-color="#8b2735" stop-opacity="1"></stop><stop offset="80%" stop-color="#70292f" stop-opacity="1"></stop></linearGradient></defs><defs><linearGradient id="grad2_3" x1="0%" y1="100%" x2="66.7%" y2="0%"><stop offset="20%" stop-color="#55282a" stop-opacity="1"></stop><stop offset="80%" stop-color="#70292f" stop-opacity="1"></stop></linearGradient></defs><defs><linearGradient id="grad2_4" x1="0%" y1="100%" x2="66.7%" y2="0%"><stop offset="20%" stop-color="#55282a" stop-opacity="1"></stop><stop offset="80%" stop-color="#3b2525" stop-opacity="1"></stop></linearGradient></defs><defs><linearGradient id="grad2_5" x1="0%" y1="100%" x2="66.7%" y2="0%"><stop offset="20%" stop-color="#202020" stop-opacity="1"></stop><stop offset="80%" stop-color="#3b2525" stop-opacity="1"></stop></linearGradient></defs><g transform="translate(900, 600)"><path d="M-486.7 0C-462.4 -60.3 -438.1 -120.7 -406.5 -168.4C-374.9 -216.1 -336 -251.2 -301.2 -301.2C-266.4 -351.3 -235.8 -416.3 -186.3 -449.7C-136.8 -483.1 -68.4 -484.9 0 -486.7L0 0Z" fill="#2e2222"></path><path d="M-405.6 0C-385.4 -50.3 -365.1 -100.6 -338.8 -140.3C-312.4 -180.1 -280 -209.3 -251 -251C-222 -292.7 -196.5 -346.9 -155.2 -374.7C-114 -402.6 -57 -404.1 0 -405.6L0 0Z" fill="#482627"></path><path d="M-324.5 0C-308.3 -40.2 -292.1 -80.4 -271 -112.3C-249.9 -144.1 -224 -167.5 -200.8 -200.8C-177.6 -234.2 -157.2 -277.5 -124.2 -299.8C-91.2 -322.1 -45.6 -323.3 0 -324.5L0 0Z" fill="#62282d"></path><path d="M-243.4 0C-231.2 -30.2 -219.1 -60.3 -203.3 -84.2C-187.5 -108 -168 -125.6 -150.6 -150.6C-133.2 -175.6 -117.9 -208.1 -93.1 -224.8C-68.4 -241.6 -34.2 -242.5 0 -243.4L0 0Z" fill="#7d2832"></path><path d="M-162.2 0C-154.1 -20.1 -146 -40.2 -135.5 -56.1C-125 -72 -112 -83.7 -100.4 -100.4C-88.8 -117.1 -78.6 -138.8 -62.1 -149.9C-45.6 -161 -22.8 -161.6 0 -162.2L0 0Z" fill="#992637"></path><path d="M-81.1 0C-77.1 -10.1 -73 -20.1 -67.8 -28.1C-62.5 -36 -56 -41.9 -50.2 -50.2C-44.4 -58.5 -39.3 -69.4 -31 -74.9C-22.8 -80.5 -11.4 -80.8 0 -81.1L0 0Z" fill="#a7233a"></path></g><g transform="translate(0, 0)"><path d="M486.7 0C448 51.1 409.2 102.2 389.9 161.5C370.6 220.8 370.7 288.3 340.1 340.1C309.5 391.9 248.1 427.9 186.3 449.7C124.5 471.5 62.2 479.1 0 486.7L0 0Z" fill="#2e2222"></path><path d="M405.6 0C373.3 42.6 341 85.1 324.9 134.6C308.8 184 308.9 240.3 283.4 283.4C257.9 326.6 206.7 356.6 155.2 374.7C103.7 392.9 51.9 399.3 0 405.6L0 0Z" fill="#482627"></path><path d="M324.5 0C298.6 34.1 272.8 68.1 259.9 107.7C247 147.2 247.2 192.2 226.7 226.7C206.3 261.3 165.4 285.3 124.2 299.8C83 314.3 41.5 319.4 0 324.5L0 0Z" fill="#62282d"></path><path d="M243.4 0C224 25.5 204.6 51.1 194.9 80.7C185.3 110.4 185.4 144.2 170.1 170.1C154.7 195.9 124 213.9 93.1 224.8C62.2 235.8 31.1 239.6 0 243.4L0 0Z" fill="#7d2832"></path><path d="M162.2 0C149.3 17 136.4 34.1 130 53.8C123.5 73.6 123.6 96.1 113.4 113.4C103.2 130.6 82.7 142.6 62.1 149.9C41.5 157.2 20.7 159.7 0 162.2L0 0Z" fill="#992637"></path><path d="M81.1 0C74.7 8.5 68.2 17 65 26.9C61.8 36.8 61.8 48.1 56.7 56.7C51.6 65.3 41.3 71.3 31 74.9C20.7 78.6 10.4 79.9 0 81.1L0 0Z" fill="#a7233a"></path></g></svg>