<svg id="visual" viewBox="0 0 900 600" width="900" height="600" xmlns="http://www.w3.org/2000/svg" xmlns:xlink="http://www.w3.org/1999/xlink" version="1.1"><rect x="0" y="0" width="900" height="600" fill="#202020"></rect><path d="M350 0L241 0L241 86L319 86L319 171L339 171L339 257L267 257L267 343L271 343L271 429L269 429L269 514L331 514L331 600L0 600L0 514L0 514L0 429L0 429L0 343L0 343L0 257L0 257L0 171L0 171L0 86L0 86L0 0L0 0Z" fill="#dc143c"></path><path d="M189 0L194 0L194 86L181 86L181 171L219 171L219 257L270 257L270 343L154 343L154 429L253 429L253 514L193 514L193 600L0 600L0 514L0 514L0 429L0 429L0 343L0 343L0 257L0 257L0 171L0 171L0 86L0 86L0 0L0 0Z" fill="#ab0e2f"></path><path d="M87 0L77 0L77 86L147 86L147 171L131 171L131 257L123 257L123 343L62 343L62 429L133 429L133 514L89 514L89 600L0 600L0 514L0 514L0 429L0 429L0 343L0 343L0 257L0 257L0 171L0 171L0 86L0 86L0 0L0 0Z" fill="#7d0921"></path></svg>